<svg width="30" height="30" viewBox="0 0 30 30" fill="none" xmlns="http://www.w3.org/2000/svg">
<path d="M23.8477 7.5H10.8398C8.9953 7.5 7.5 8.9953 7.5 10.8398V23.8477C7.5 25.6922 8.9953 27.1875 10.8398 27.1875H23.8477C25.6922 27.1875 27.1875 25.6922 27.1875 23.8477V10.8398C27.1875 8.9953 25.6922 7.5 23.8477 7.5Z" stroke="#6B6B6B" stroke-width="1.875" stroke-linejoin="round"/>
<path d="M22.4707 7.5L22.5 6.09375C22.4975 5.22427 22.151 4.39111 21.5362 3.77629C20.9214 3.16147 20.0882 2.81497 19.2188 2.8125H6.5625C5.56884 2.81544 4.61672 3.21147 3.91409 3.91409C3.21147 4.61672 2.81544 5.56884 2.8125 6.5625V19.2188C2.81497 20.0882 3.16147 20.9214 3.77629 21.5362C4.39111 22.151 5.22427 22.4975 6.09375 22.5H7.5" stroke="#6B6B6B" stroke-width="1.875" stroke-linecap="round" stroke-linejoin="round"/>
</svg>
