<svg width="15" height="15" viewBox="0 0 15 15" fill="none" xmlns="http://www.w3.org/2000/svg">
<path d="M2.56292 11.1328C2.59808 11.0045 2.52103 10.8261 2.44749 10.6975C2.4247 10.659 2.39986 10.6219 2.37308 10.5861C1.74239 9.62967 1.40624 8.50916 1.40628 7.36348C1.39573 4.0749 4.12269 1.40625 7.49476 1.40625C10.4356 1.40625 12.8907 3.44355 13.464 6.14795C13.55 6.54889 13.5935 6.9578 13.5938 7.36787C13.5938 10.6611 10.972 13.3717 7.59993 13.3717C7.06351 13.3717 6.34017 13.2369 5.94554 13.1265C5.55091 13.016 5.15687 12.8695 5.05521 12.8303C4.95113 12.7903 4.84062 12.7698 4.72913 12.7696C4.60756 12.7692 4.48717 12.7934 4.37523 12.8408L2.38773 13.558C2.34429 13.5768 2.29826 13.5888 2.2512 13.5938C2.21398 13.5936 2.17715 13.5861 2.14284 13.5717C2.10854 13.5573 2.07743 13.5362 2.05133 13.5096C2.02523 13.4831 2.00465 13.4516 1.99078 13.4171C1.97692 13.3826 1.97003 13.3456 1.97054 13.3084C1.97298 13.2757 1.97887 13.2434 1.98812 13.212L2.56292 11.1328Z" stroke="#6B6B6B" stroke-width="0.9375" stroke-miterlimit="10" stroke-linecap="round"/>
<path d="M4.6875 8.4375C5.20527 8.4375 5.625 8.01777 5.625 7.5C5.625 6.98223 5.20527 6.5625 4.6875 6.5625C4.16973 6.5625 3.75 6.98223 3.75 7.5C3.75 8.01777 4.16973 8.4375 4.6875 8.4375Z" fill="#6B6B6B"/>
<path d="M7.5 8.4375C8.01777 8.4375 8.4375 8.01777 8.4375 7.5C8.4375 6.98223 8.01777 6.5625 7.5 6.5625C6.98223 6.5625 6.5625 6.98223 6.5625 7.5C6.5625 8.01777 6.98223 8.4375 7.5 8.4375Z" fill="#6B6B6B"/>
<path d="M10.3125 8.4375C10.8303 8.4375 11.25 8.01777 11.25 7.5C11.25 6.98223 10.8303 6.5625 10.3125 6.5625C9.79473 6.5625 9.375 6.98223 9.375 7.5C9.375 8.01777 9.79473 8.4375 10.3125 8.4375Z" fill="#6B6B6B"/>
</svg>
