<svg width="30" height="30" viewBox="0 0 30 30" fill="none" xmlns="http://www.w3.org/2000/svg">
<path d="M26.25 15C26.25 8.78906 21.2109 3.75 15 3.75C8.78906 3.75 3.75 8.78906 3.75 15C3.75 21.2109 8.78906 26.25 15 26.25C21.2109 26.25 26.25 21.2109 26.25 15Z" stroke="#6B6B6B" stroke-width="1.875" stroke-miterlimit="10"/>
<path d="M20.5469 8.84363L13.6797 11.5905C13.208 11.7791 12.7796 12.0616 12.4205 12.4207C12.0613 12.7799 11.7788 13.2083 11.5902 13.68L8.84334 20.5471C8.80924 20.6323 8.80089 20.7256 8.81933 20.8155C8.83777 20.9054 8.88218 20.9879 8.94706 21.0528C9.01194 21.1177 9.09444 21.1621 9.18432 21.1805C9.27421 21.199 9.36753 21.1906 9.45271 21.1565L16.3199 18.4096C16.7915 18.221 17.2199 17.9386 17.5791 17.5794C17.9383 17.2202 18.2207 16.7918 18.4094 16.3202L21.1562 9.453C21.1903 9.36782 21.1987 9.2745 21.1802 9.18461C21.1618 9.09473 21.1174 9.01223 21.0525 8.94735C20.9876 8.88247 20.9051 8.83806 20.8152 8.81962C20.7254 8.80118 20.632 8.80953 20.5469 8.84363V8.84363ZM14.9998 16.4063C14.7217 16.4063 14.4498 16.3238 14.2185 16.1693C13.9873 16.0148 13.807 15.7952 13.7006 15.5382C13.5941 15.2813 13.5663 14.9985 13.6206 14.7257C13.6748 14.4529 13.8087 14.2024 14.0054 14.0057C14.2021 13.809 14.4527 13.6751 14.7254 13.6208C14.9982 13.5666 15.281 13.5944 15.5379 13.7009C15.7949 13.8073 16.0145 13.9875 16.169 14.2188C16.3236 14.4501 16.406 14.7219 16.406 15.0001C16.406 15.373 16.2579 15.7307 15.9942 15.9944C15.7304 16.2582 15.3727 16.4063 14.9998 16.4063Z" fill="#6B6B6B"/>
</svg>
