<svg width="20" height="20" viewBox="0 0 20 20" fill="none" xmlns="http://www.w3.org/2000/svg">
<path d="M15 8.75V15.9375C15 16.1427 14.9596 16.3459 14.8811 16.5354C14.8025 16.725 14.6874 16.8973 14.5424 17.0424C14.3973 17.1874 14.225 17.3025 14.0354 17.3811C13.8459 17.4596 13.6427 17.5 13.4375 17.5H4.0625C3.6481 17.5 3.25067 17.3354 2.95765 17.0424C2.66462 16.7493 2.5 16.3519 2.5 15.9375V6.5625C2.5 6.1481 2.66462 5.75067 2.95765 5.45765C3.25067 5.16462 3.6481 5 4.0625 5H10.6047" stroke="#6B6B6B" stroke-width="1.25" stroke-linecap="round" stroke-linejoin="round"/>
<path d="M17.9666 2.08009C17.9095 2.01737 17.8403 1.96688 17.7631 1.93166C17.686 1.89644 17.6025 1.87723 17.5177 1.87518C17.4329 1.87314 17.3486 1.8883 17.2699 1.91976C17.1911 1.95122 17.1196 1.99832 17.0595 2.05821L16.5763 2.53907C16.5178 2.59767 16.4849 2.67713 16.4849 2.75997C16.4849 2.84282 16.5178 2.92227 16.5763 2.98087L17.0193 3.42306C17.0483 3.45223 17.0828 3.47538 17.1208 3.49118C17.1589 3.50697 17.1996 3.5151 17.2408 3.5151C17.2819 3.5151 17.3227 3.50697 17.3607 3.49118C17.3987 3.47538 17.4332 3.45223 17.4623 3.42306L17.9334 2.95431C18.1716 2.71642 18.1939 2.32892 17.9666 2.08009Z" fill="#6B6B6B"/>
<path d="M15.5993 3.51565L8.5477 10.5547C8.50495 10.5973 8.47387 10.6502 8.45747 10.7082L8.1313 11.6797C8.12348 11.7061 8.12293 11.734 8.1297 11.7607C8.13646 11.7873 8.15029 11.8117 8.16973 11.8311C8.18918 11.8506 8.2135 11.8644 8.24015 11.8712C8.2668 11.8779 8.29478 11.8774 8.32114 11.8696L9.29184 11.5434C9.34991 11.527 9.40278 11.4959 9.44536 11.4531L16.4844 4.4008C16.5495 4.33498 16.5861 4.24613 16.5861 4.15354C16.5861 4.06094 16.5495 3.97209 16.4844 3.90627L16.0958 3.51565C16.0298 3.44993 15.9406 3.41302 15.8475 3.41302C15.7544 3.41302 15.6652 3.44993 15.5993 3.51565V3.51565Z" fill="#6B6B6B"/>
</svg>
