<svg width="15" height="15" viewBox="0 0 15 15" fill="none" xmlns="http://www.w3.org/2000/svg">
<path d="M7.49996 13.125C7.31178 13.1248 7.12804 13.0679 6.97262 12.9618C4.67017 11.3988 3.6732 10.3271 3.1233 9.65713C1.95142 8.22891 1.39039 6.7626 1.40621 5.17471C1.42467 3.35508 2.88453 1.875 4.66051 1.875C5.95191 1.875 6.84635 2.60244 7.36724 3.2083C7.38374 3.2273 7.40413 3.24253 7.42703 3.25297C7.44992 3.26341 7.47479 3.26882 7.49996 3.26882C7.52512 3.26882 7.54999 3.26341 7.57289 3.25297C7.59579 3.24253 7.61617 3.2273 7.63267 3.2083C8.15357 2.60186 9.04801 1.875 10.3394 1.875C12.1154 1.875 13.5753 3.35508 13.5937 5.175C13.6095 6.76318 13.0479 8.22949 11.8766 9.65742C11.3267 10.3274 10.3297 11.3991 8.0273 12.9621C7.87185 13.0681 7.6881 13.1248 7.49996 13.125Z" fill="#EB4242"/>
</svg>
