<svg width="119" height="43" viewBox="0 0 119 43" fill="none" xmlns="http://www.w3.org/2000/svg">
<path d="M7.5 36.61C6.04 36.61 4.82 36.26 3.84 35.56C2.86 34.86 2.13 33.95 1.65 32.83C1.19 31.71 0.96 30.5 0.96 29.2C0.96 26.62 1.59 24.03 2.85 21.43C4.13 18.81 5.76 16.66 7.74 14.98C9.72 13.28 11.71 12.43 13.71 12.43C14.65 12.43 15.4 12.65 15.96 13.09C16.54 13.53 16.83 14.22 16.83 15.16C16.83 15.96 16.64 16.88 16.26 17.92C15.9 18.96 15.43 19.85 14.85 20.59C14.29 21.31 13.72 21.67 13.14 21.67C12.64 21.67 12.23 21.36 11.91 20.74C12.67 19.9 13.4 18.9 14.1 17.74C14.82 16.58 15.18 15.64 15.18 14.92C15.18 14.14 14.73 13.75 13.83 13.75C12.43 13.75 10.94 14.6 9.36 16.3C7.8 18 6.49 20.09 5.43 22.57C4.39 25.05 3.87 27.35 3.87 29.47C3.87 31.07 4.23 32.42 4.95 33.52C5.67 34.62 6.76 35.17 8.22 35.17C9.26 35.17 10.32 34.87 11.4 34.27C12.48 33.69 13.47 32.91 14.37 31.93C15.27 30.95 15.99 29.89 16.53 28.75L17.31 29.26C16.17 31.42 14.75 33.18 13.05 34.54C11.37 35.92 9.52 36.61 7.5 36.61ZM17.2003 35.14C16.7803 35.14 16.4703 34.82 16.2703 34.18C16.0703 33.54 15.9703 32.73 15.9703 31.75C15.9703 29.95 16.5303 27.51 17.6503 24.43C18.7903 21.33 20.0903 18.58 21.5503 16.18C23.0103 13.78 24.2003 12.58 25.1203 12.58C25.5203 12.58 25.8303 12.8 26.0503 13.24C26.2903 13.68 26.4103 14.17 26.4103 14.71C26.4103 15.63 26.0703 16.86 25.3903 18.4C24.7303 19.94 23.8503 21.43 22.7503 22.87C21.6703 24.29 20.5503 25.34 19.3903 26.02C18.7103 27.82 18.3703 29.52 18.3703 31.12L18.4003 31.75C18.4403 31.69 18.5303 31.47 18.6703 31.09C19.0703 30.05 19.4903 29.11 19.9303 28.27C20.3703 27.43 20.9703 26.65 21.7303 25.93C22.5103 25.19 23.4103 24.82 24.4303 24.82C25.3503 24.82 26.0203 25.12 26.4403 25.72C26.8603 26.3 27.0703 26.99 27.0703 27.79C27.0703 28.25 27.0103 28.68 26.8903 29.08C26.7703 29.48 26.5903 29.99 26.3503 30.61C26.3103 30.69 26.2303 30.88 26.1103 31.18C26.0103 31.46 25.9303 31.72 25.8703 31.96C25.8303 32.18 25.8103 32.38 25.8103 32.56C25.8103 33.2 26.0803 33.52 26.6203 33.52C27.0603 33.52 27.5803 33.3 28.1803 32.86C28.7803 32.42 29.3703 31.83 29.9503 31.09C30.5303 30.35 31.0303 29.55 31.4503 28.69L31.9303 29.2C31.1903 30.84 30.2903 32.17 29.2303 33.19C28.1903 34.21 27.0703 34.72 25.8703 34.72C25.1303 34.72 24.5503 34.52 24.1303 34.12C23.7303 33.74 23.5303 33.24 23.5303 32.62C23.5303 32.22 23.6703 31.5 23.9503 30.46C24.2503 29.48 24.4003 28.75 24.4003 28.27C24.4003 27.43 24.0403 27.01 23.3203 27.01C22.6003 27.01 21.9903 27.39 21.4903 28.15C21.0103 28.89 20.4603 29.99 19.8403 31.45C19.3403 32.69 18.9003 33.61 18.5203 34.21C18.1403 34.83 17.7003 35.14 17.2003 35.14ZM20.0203 24.1C20.8403 23.36 21.6303 22.4 22.3903 21.22C23.1503 20.04 23.7703 18.9 24.2503 17.8C24.7303 16.68 24.9703 15.88 24.9703 15.4C24.7303 15.5 24.3003 15.99 23.6803 16.87C23.0603 17.73 22.4103 18.82 21.7303 20.14C21.0503 21.44 20.4803 22.76 20.0203 24.1ZM34.1245 35.32C32.8645 35.32 31.8845 34.98 31.1845 34.3C30.4845 33.62 30.1345 32.75 30.1345 31.69C30.1345 30.53 30.5245 29.28 31.3045 27.94C32.0845 26.58 33.0845 25.45 34.3045 24.55C35.5245 23.63 36.7245 23.17 37.9045 23.17C38.5245 23.17 39.0445 23.33 39.4645 23.65C39.8845 23.95 40.0945 24.46 40.0945 25.18C40.0945 26.14 39.7245 27.05 38.9845 27.91C38.2445 28.75 37.2845 29.44 36.1045 29.98C34.9445 30.52 33.7545 30.86 32.5345 31C32.4945 31.2 32.4745 31.43 32.4745 31.69C32.4745 32.21 32.6145 32.73 32.8945 33.25C33.1945 33.77 33.8245 34.03 34.7845 34.03C36.0045 34.03 37.2445 33.54 38.5045 32.56C39.7845 31.56 40.8145 30.32 41.5945 28.84L42.1945 29.32C41.3945 31.12 40.2445 32.57 38.7445 33.67C37.2645 34.77 35.7245 35.32 34.1245 35.32ZM32.8645 29.89C33.5845 29.81 34.3845 29.52 35.2645 29.02C36.1645 28.52 36.9245 27.91 37.5445 27.19C38.1645 26.45 38.4745 25.73 38.4745 25.03C38.4745 24.81 38.4345 24.66 38.3545 24.58C38.2745 24.5 38.1445 24.46 37.9645 24.46C37.3845 24.46 36.7445 24.74 36.0445 25.3C35.3645 25.84 34.7345 26.53 34.1545 27.37C33.5745 28.21 33.1445 29.05 32.8645 29.89ZM40.8391 42.4C40.3591 42.4 39.9191 42.19 39.5191 41.77C39.0991 41.35 38.8891 40.62 38.8891 39.58C38.8891 37.48 39.6291 34.19 41.1091 29.71C42.6091 25.21 44.3691 21.2 46.3891 17.68C48.4291 14.16 50.2891 12.4 51.9691 12.4C52.8091 12.4 53.2291 12.9 53.2291 13.9C53.2291 15.02 52.8391 16.28 52.0591 17.68C51.2791 19.08 50.2491 20.45 48.9691 21.79C47.7091 23.11 46.3991 24.23 45.0391 25.15C44.9791 25.27 44.9091 25.41 44.8291 25.57C44.7691 25.71 44.6991 25.9 44.6191 26.14C44.7991 26.24 44.9491 26.39 45.0691 26.59C45.2091 26.77 45.2891 26.96 45.3091 27.16C45.6291 29.04 46.5491 29.98 48.0691 29.98C48.9891 29.98 49.9991 29.67 51.0991 29.05C51.5391 26.99 52.3791 24.65 53.6191 22.03C54.8591 19.39 56.1291 17.13 57.4291 15.25C58.7491 13.35 59.7191 12.4 60.3391 12.4C60.6791 12.4 60.9791 12.68 61.2391 13.24C61.4991 13.78 61.6291 14.3 61.6291 14.8C61.6291 15.74 61.2591 17.08 60.5191 18.82C59.7791 20.56 58.7891 22.34 57.5491 24.16C56.3091 25.96 54.9691 27.43 53.5291 28.57C53.2891 29.77 53.1691 30.77 53.1691 31.57C53.1691 32.25 53.2791 32.77 53.4991 33.13C53.7391 33.47 54.0491 33.64 54.4291 33.64C55.1691 33.64 55.9491 33.17 56.7691 32.23C57.5891 31.27 58.2891 30.14 58.8691 28.84L59.6191 29.26C57.7791 33.1 55.7491 35.02 53.5291 35.02C51.6891 35.02 50.7691 33.81 50.7691 31.39C50.7691 31.07 50.7991 30.72 50.8591 30.34C49.7791 30.86 48.7091 31.12 47.6491 31.12C46.9891 31.12 46.3091 30.97 45.6091 30.67C45.6091 30.93 45.6291 31.28 45.6691 31.72C45.6691 33.4 45.4391 35.07 44.9791 36.73C44.5391 38.39 43.9491 39.75 43.2091 40.81C42.4691 41.87 41.6791 42.4 40.8391 42.4ZM45.9091 23.02C47.0291 21.98 48.0291 20.92 48.9091 19.84C49.7891 18.74 50.4691 17.77 50.9491 16.93C51.4291 16.07 51.6691 15.44 51.6691 15.04C51.6691 14.9 51.5891 14.83 51.4291 14.83C50.7291 14.83 49.8891 15.59 48.9091 17.11C47.9291 18.61 46.9291 20.58 45.9091 23.02ZM54.0391 26.86C54.8991 25.92 55.8091 24.76 56.7691 23.38C57.7291 22 58.5491 20.58 59.2291 19.12C59.9291 17.64 60.2791 16.34 60.2791 15.22C60.0191 15.22 59.4891 15.83 58.6891 17.05C57.8891 18.27 57.0491 19.79 56.1691 21.61C55.2891 23.41 54.5791 25.16 54.0391 26.86ZM41.6491 40.54C42.0291 40.54 42.4391 40.06 42.8791 39.1C43.3191 38.14 43.6891 36.97 43.9891 35.59C44.2891 34.21 44.4391 32.94 44.4391 31.78C44.4391 30.48 44.1891 29.5 43.6891 28.84C42.9291 31.04 42.3191 33.08 41.8591 34.96C41.4191 36.84 41.1991 38.27 41.1991 39.25C41.1991 40.11 41.3491 40.54 41.6491 40.54ZM64.0357 21.37C63.6157 21.37 63.2557 21.27 62.9557 21.07C62.6757 20.87 62.5357 20.58 62.5357 20.2C62.5357 19.74 62.7857 19.34 63.2857 19C63.8057 18.64 64.3557 18.46 64.9357 18.46C65.7957 18.46 66.2257 18.83 66.2257 19.57C66.2257 19.99 65.9957 20.4 65.5357 20.8C65.0757 21.18 64.5757 21.37 64.0357 21.37ZM60.4957 34.9C59.6557 34.9 59.0057 34.65 58.5457 34.15C58.0857 33.65 57.8557 33.01 57.8557 32.23C57.8557 31.43 58.0757 30.35 58.5157 28.99C58.9757 27.61 59.5457 26.4 60.2257 25.36C60.9257 24.32 61.6257 23.8 62.3257 23.8C62.5857 23.8 62.7957 23.88 62.9557 24.04C63.1357 24.18 63.2257 24.39 63.2257 24.67C63.2257 24.85 63.1457 25.1 62.9857 25.42C62.8257 25.72 62.5657 26.16 62.2057 26.74C61.5657 27.8 61.0557 28.74 60.6757 29.56C60.3157 30.36 60.1357 31.12 60.1357 31.84C60.1357 32.46 60.2457 32.88 60.4657 33.1C60.6857 33.32 61.0257 33.43 61.4857 33.43C63.0657 33.43 64.6357 31.9 66.1957 28.84L66.6457 29.32C65.9457 31.08 65.0557 32.45 63.9757 33.43C62.8957 34.41 61.7357 34.9 60.4957 34.9ZM68.8099 35.68C67.7299 35.68 66.8599 35.34 66.1999 34.66C65.5599 34 65.2399 33.02 65.2399 31.72C65.2399 30.44 65.5599 29.19 66.1999 27.97C66.8599 26.75 67.7099 25.76 68.7499 25C69.7899 24.24 70.8399 23.86 71.8999 23.86C72.6999 23.86 73.2899 24.06 73.6699 24.46C74.0699 24.86 74.2699 25.36 74.2699 25.96C74.2699 26.56 74.1199 27.12 73.8199 27.64C73.5399 28.14 73.1899 28.39 72.7699 28.39C72.3899 28.39 72.0799 28.2 71.8399 27.82C72.0799 27.66 72.2999 27.38 72.4999 26.98C72.6999 26.58 72.7999 26.11 72.7999 25.57C72.7999 25.23 72.6099 25.06 72.2299 25.06C71.5899 25.06 70.8999 25.44 70.1599 26.2C69.4199 26.96 68.7999 27.88 68.2999 28.96C67.7999 30.04 67.5499 31.02 67.5499 31.9C67.5499 32.54 67.7099 33.08 68.0299 33.52C68.3499 33.94 68.8999 34.15 69.6799 34.15C70.4399 34.15 71.2299 33.93 72.0499 33.49C72.8899 33.05 73.6699 32.43 74.3899 31.63C75.1099 30.81 75.6799 29.87 76.0999 28.81L76.6999 29.35C76.2199 30.55 75.5499 31.63 74.6899 32.59C73.8499 33.55 72.9099 34.3 71.8699 34.84C70.8299 35.4 69.8099 35.68 68.8099 35.68ZM81.3502 21.37C80.9302 21.37 80.5702 21.27 80.2702 21.07C79.9902 20.87 79.8502 20.58 79.8502 20.2C79.8502 19.74 80.1002 19.34 80.6002 19C81.1202 18.64 81.6702 18.46 82.2502 18.46C83.1102 18.46 83.5402 18.83 83.5402 19.57C83.5402 19.99 83.3102 20.4 82.8502 20.8C82.3902 21.18 81.8902 21.37 81.3502 21.37ZM77.8102 34.9C76.9702 34.9 76.3202 34.65 75.8602 34.15C75.4002 33.65 75.1702 33.01 75.1702 32.23C75.1702 31.43 75.3902 30.35 75.8302 28.99C76.2902 27.61 76.8602 26.4 77.5402 25.36C78.2402 24.32 78.9402 23.8 79.6402 23.8C79.9002 23.8 80.1102 23.88 80.2702 24.04C80.4502 24.18 80.5402 24.39 80.5402 24.67C80.5402 24.85 80.4602 25.1 80.3002 25.42C80.1402 25.72 79.8802 26.16 79.5202 26.74C78.8802 27.8 78.3702 28.74 77.9902 29.56C77.6302 30.36 77.4502 31.12 77.4502 31.84C77.4502 32.46 77.5602 32.88 77.7802 33.1C78.0002 33.32 78.3402 33.43 78.8002 33.43C80.3802 33.43 81.9502 31.9 83.5102 28.84L83.9602 29.32C83.2602 31.08 82.3702 32.45 81.2902 33.43C80.2102 34.41 79.0502 34.9 77.8102 34.9ZM84.7144 34.96C83.8944 34.96 83.2944 34.69 82.9144 34.15C82.5544 33.61 82.3744 32.94 82.3744 32.14C82.3744 31.3 82.5444 30.43 82.8844 29.53C83.2444 28.63 83.7044 27.88 84.2644 27.28C84.8244 26.68 85.3944 26.38 85.9744 26.38C86.2144 26.38 86.5244 26.46 86.9044 26.62C87.0244 25.7 87.3444 24.94 87.8644 24.34C88.4044 23.74 89.1544 23.44 90.1144 23.44C90.9144 23.44 91.5044 23.67 91.8844 24.13C92.2644 24.57 92.4544 25.15 92.4544 25.87C92.4544 26.57 92.2644 27.37 91.8844 28.27C91.5244 29.17 91.0544 30.07 90.4744 30.97C90.7144 31.09 90.9944 31.15 91.3144 31.15C91.8744 31.15 92.4744 30.97 93.1144 30.61C93.7544 30.23 94.2444 29.66 94.5844 28.9L95.1244 29.29C94.7044 30.25 94.1344 30.98 93.4144 31.48C92.7144 31.98 91.9844 32.23 91.2244 32.23C90.7644 32.23 90.2644 32.14 89.7244 31.96C88.9844 32.84 88.1744 33.56 87.2944 34.12C86.4144 34.68 85.5544 34.96 84.7144 34.96ZM89.4544 30.34C89.9544 29.6 90.3644 28.83 90.6844 28.03C91.0244 27.23 91.1944 26.51 91.1944 25.87C91.1944 24.99 90.9144 24.55 90.3544 24.55C90.0944 24.55 89.8244 24.68 89.5444 24.94C89.2644 25.2 89.0344 25.55 88.8544 25.99C88.6744 26.41 88.5844 26.88 88.5844 27.4C88.5844 27.86 88.6644 28.39 88.8244 28.99C88.9844 29.57 89.1944 30.02 89.4544 30.34ZM85.7944 33.43C86.1544 33.43 86.5944 33.23 87.1144 32.83C87.6344 32.43 88.1544 31.92 88.6744 31.3C87.5344 30.3 86.9344 28.83 86.8744 26.89C86.6344 27.01 86.3444 27.38 86.0044 28C85.6644 28.62 85.3744 29.31 85.1344 30.07C84.8944 30.83 84.7744 31.49 84.7744 32.05C84.7744 32.97 85.1144 33.43 85.7944 33.43ZM96.1765 34.9C95.5165 34.9 94.9665 34.59 94.5265 33.97C94.0865 33.35 93.8665 32.62 93.8665 31.78C93.8665 31.06 94.0265 30.16 94.3465 29.08C94.6665 28 95.0365 27.06 95.4565 26.26C95.8965 25.46 96.2765 25.06 96.5965 25.06C96.7365 25.06 96.9465 25.14 97.2265 25.3C97.5265 25.44 97.7865 25.62 98.0065 25.84C97.5865 26.46 97.1465 27.35 96.6865 28.51C96.2465 29.67 96.0265 30.67 96.0265 31.51C96.0265 31.89 96.0765 32.29 96.1765 32.71C96.2965 33.11 96.5465 33.31 96.9265 33.31C97.6665 33.31 98.5465 32.49 99.5665 30.85C100.606 29.19 101.496 27.51 102.236 25.81C103.436 26.01 104.036 26.35 104.036 26.83C104.036 26.87 103.916 27.16 103.676 27.7C103.256 28.68 102.896 29.59 102.596 30.43C102.296 31.27 102.146 32 102.146 32.62C102.146 33.32 102.416 33.67 102.956 33.67C103.376 33.67 103.876 33.48 104.456 33.1C105.056 32.7 105.666 32.14 106.286 31.42C106.906 30.68 107.446 29.83 107.906 28.87L108.356 29.23C107.916 30.31 107.346 31.28 106.646 32.14C105.946 33 105.186 33.67 104.366 34.15C103.566 34.65 102.796 34.9 102.056 34.9C101.176 34.9 100.606 34.6 100.346 34C100.106 33.38 99.9865 32.56 99.9865 31.54C99.3065 32.58 98.6665 33.4 98.0665 34C97.4665 34.6 96.8365 34.9 96.1765 34.9ZM110.649 35.53C109.249 35.53 108.209 35.12 107.529 34.3C106.869 33.5 106.539 32.54 106.539 31.42C106.539 30.64 106.679 30.1 106.959 29.8C107.239 29.48 107.549 29.24 107.889 29.08C108.249 28.92 108.459 28.81 108.519 28.75C109.799 27.43 110.769 26.06 111.429 24.64V24.34C111.429 23.6 111.549 23.05 111.789 22.69C112.049 22.33 112.379 22.15 112.779 22.15C113.219 22.15 113.459 22.35 113.499 22.75C113.499 22.85 113.469 23 113.409 23.2C113.369 23.4 113.349 23.61 113.349 23.83C113.349 24.21 113.409 24.61 113.529 25.03C113.649 25.45 113.839 26.02 114.099 26.74C114.419 27.62 114.659 28.38 114.819 29.02C114.999 29.66 115.089 30.31 115.089 30.97C115.089 31.31 115.049 31.72 114.969 32.2C116.329 31.86 117.509 30.73 118.509 28.81L118.869 29.08C118.469 30.22 117.909 31.14 117.189 31.84C116.489 32.54 115.659 32.96 114.699 33.1C114.379 33.9 113.859 34.5 113.139 34.9C112.419 35.32 111.589 35.53 110.649 35.53ZM112.599 32.14C112.659 31.96 112.689 31.65 112.689 31.21C112.669 30.57 112.599 29.94 112.479 29.32C112.359 28.7 112.179 27.9 111.939 26.92L111.669 25.84C110.689 27.54 109.819 28.79 109.059 29.59C109.399 30.17 109.879 30.7 110.499 31.18C111.119 31.64 111.819 31.96 112.599 32.14ZM110.439 34.21C110.839 34.21 111.209 34.11 111.549 33.91C111.909 33.71 112.179 33.42 112.359 33.04C111.579 32.88 110.859 32.58 110.199 32.14C109.539 31.68 109.009 31.19 108.609 30.67C108.329 30.73 108.189 31 108.189 31.48C108.189 32.2 108.389 32.84 108.789 33.4C109.189 33.94 109.739 34.21 110.439 34.21Z" fill="#2ED9A0"/>
<path fill-rule="evenodd" clip-rule="evenodd" d="M59.8547 18.007C61.3625 17.9656 62.7275 16.9448 63.1379 15.4133C63.5757 13.7793 62.781 12.102 61.322 11.3757L60.2058 10.82L60.5481 9.6211C60.555 9.59697 60.5617 9.57274 60.5682 9.54843C61.2115 7.14783 59.7869 4.68032 57.3863 4.03708C54.9857 3.39384 52.5182 4.81846 51.8749 7.21906C51.8684 7.2434 51.8621 7.26772 51.856 7.29203L51.553 8.50152L50.3085 8.42464C48.6818 8.32415 47.155 9.37933 46.7171 11.0134C46.3068 12.5449 46.9785 14.1114 48.2636 14.9012L47.8637 16.3935C45.7791 15.3553 44.6422 12.9617 45.2682 10.6252C45.8944 8.28837 48.0763 6.78388 50.401 6.92749C50.409 6.89527 50.4174 6.86304 50.426 6.83083C51.2837 3.63003 54.5737 1.73054 57.7745 2.58819C60.9753 3.44584 62.8748 6.73586 62.0171 9.93666C62.0085 9.96887 61.9996 10.001 61.9905 10.0329C64.0755 11.0709 65.2129 13.4648 64.5867 15.8016C63.9607 18.1381 61.7792 19.6425 59.4548 19.4993L59.8547 18.007Z" fill="#2ED9A0"/>
</svg>
