<svg width="15" height="15" viewBox="0 0 15 15" fill="none" xmlns="http://www.w3.org/2000/svg">
<path d="M1.6843 1.39862L12.4781 12.1925C12.683 12.3973 12.798 12.6751 12.798 12.9647C12.798 13.2544 12.683 13.5322 12.4781 13.737V13.737C12.2733 13.9417 11.9955 14.0567 11.7059 14.0567C11.4163 14.0567 11.1385 13.9417 10.9336 13.737L8.29689 11.0549C8.12434 10.8797 8.02754 10.6437 8.02736 10.3977V10.2357C8.02739 10.1116 8.00274 9.98862 7.95487 9.87406C7.90699 9.75949 7.83683 9.65558 7.74846 9.56835L7.40803 9.25399C7.29246 9.14736 7.15193 9.0715 6.99936 9.03341C6.8468 8.99532 6.68711 8.99622 6.53498 9.03602V9.03602C6.29509 9.09863 6.04299 9.09742 5.80371 9.03252C5.56443 8.96761 5.34629 8.84126 5.17092 8.666L2.66809 6.16288C1.18332 4.67811 0.636933 2.43602 1.6843 1.39862Z" stroke="#6B6B6B" stroke-width="1.125" stroke-linejoin="round"/>
<path d="M11.7188 0.9375L9.45557 3.20068C9.28141 3.3748 9.14327 3.58152 9.04901 3.80903C8.95476 4.03654 8.90625 4.2804 8.90625 4.52666V4.96201C8.90626 5.02361 8.89413 5.0846 8.87055 5.14151C8.84698 5.19841 8.81242 5.25011 8.76885 5.29365L8.4375 5.625" stroke="#6B6B6B" stroke-width="1.125" stroke-linecap="round" stroke-linejoin="round"/>
<path d="M9.375 6.5625L9.70635 6.23115C9.74989 6.18758 9.80159 6.15302 9.85849 6.12945C9.9154 6.10587 9.97639 6.09374 10.038 6.09375H10.4733C10.7196 6.09375 10.9635 6.04524 11.191 5.95099C11.4185 5.85673 11.6252 5.71859 11.7993 5.54443L14.0625 3.28125" stroke="#6B6B6B" stroke-width="1.125" stroke-linecap="round" stroke-linejoin="round"/>
<path d="M12.8906 2.10938L10.5469 4.45312" stroke="#6B6B6B" stroke-width="1.125" stroke-linecap="round" stroke-linejoin="round"/>
<path d="M5.85937 10.7813L2.93788 13.7191C2.71813 13.9388 2.42011 14.0623 2.10937 14.0623C1.79863 14.0623 1.50061 13.9388 1.28085 13.7191V13.7191C1.06116 13.4994 0.937744 13.2014 0.937744 12.8906C0.937744 12.5799 1.06116 12.2819 1.28085 12.0621L3.74999 9.60938" stroke="#6B6B6B" stroke-width="1.125" stroke-linecap="round" stroke-linejoin="round"/>
</svg>
