<svg width="15" height="15" viewBox="0 0 15 15" fill="none" xmlns="http://www.w3.org/2000/svg">
<path d="M7.68428 5.63408C7.29958 5.59609 6.91254 5.67793 6.57614 5.86841C6.23975 6.05888 5.97046 6.34867 5.80513 6.69811C5.6398 7.04755 5.58652 7.43955 5.65258 7.82043C5.71865 8.20132 5.90083 8.55248 6.17418 8.82583C6.44752 9.09918 6.79868 9.28136 7.17957 9.34742C7.56046 9.41349 7.95246 9.36021 8.30189 9.19488C8.65133 9.02955 8.94112 8.76025 9.1316 8.42386C9.32207 8.08747 9.40392 7.70043 9.36592 7.31572C9.32261 6.88446 9.13152 6.48145 8.82504 6.17497C8.51856 5.86849 8.11554 5.6774 7.68428 5.63408V5.63408ZM12.1989 7.5C12.1977 7.70381 12.1828 7.9073 12.1541 8.10908L13.4786 9.14795C13.5363 9.19576 13.5752 9.26246 13.5883 9.33622C13.6014 9.40997 13.588 9.48599 13.5504 9.55078L12.2974 11.7188C12.2593 11.7829 12.1998 11.8316 12.1294 11.8562C12.059 11.8808 11.9821 11.8797 11.9124 11.8532L10.597 11.3235C10.5244 11.2947 10.4459 11.2842 10.3683 11.2932C10.2907 11.3021 10.2166 11.3302 10.1525 11.3748C9.95179 11.5131 9.74083 11.6359 9.52149 11.7422C9.45253 11.7757 9.39289 11.8257 9.34782 11.8877C9.30275 11.9497 9.27365 12.0219 9.26309 12.0979L9.06592 13.5009C9.05297 13.575 9.01469 13.6423 8.95762 13.6913C8.90055 13.7403 8.82824 13.7679 8.75303 13.7695H6.24698C6.17301 13.7683 6.10169 13.7418 6.04477 13.6946C5.98784 13.6473 5.9487 13.5821 5.93379 13.5097L5.73692 12.1087C5.72586 12.0319 5.69601 11.9591 5.65001 11.8966C5.60401 11.8341 5.54329 11.784 5.47325 11.7507C5.25417 11.6449 5.04392 11.5218 4.84454 11.3824C4.7807 11.338 4.70681 11.3102 4.62953 11.3014C4.55225 11.2927 4.47401 11.3033 4.40186 11.3323L3.08672 11.8617C3.01703 11.8883 2.9402 11.8894 2.86978 11.8648C2.79936 11.8403 2.73986 11.7917 2.70176 11.7275L1.44874 9.55957C1.41106 9.4948 1.3976 9.41876 1.41074 9.34499C1.42389 9.27122 1.46279 9.20451 1.52051 9.15674L2.63995 8.27783C2.70127 8.22915 2.74948 8.16592 2.78017 8.09388C2.81087 8.02185 2.82309 7.94329 2.81573 7.86533C2.80518 7.74316 2.79873 7.62129 2.79873 7.49912C2.79873 7.37695 2.80489 7.25684 2.81573 7.1373C2.82229 7.05982 2.80946 6.98193 2.77842 6.91063C2.74738 6.83934 2.69908 6.77689 2.6379 6.72891L1.51905 5.85C1.46226 5.80198 1.42418 5.73551 1.41149 5.66223C1.39879 5.58895 1.41229 5.51354 1.44961 5.44922L2.70264 3.28125C2.74069 3.21709 2.80017 3.16842 2.8706 3.14381C2.94103 3.11921 3.01787 3.12026 3.0876 3.14678L4.40303 3.67646C4.47557 3.70535 4.55414 3.71578 4.63171 3.70683C4.70927 3.69789 4.78341 3.66984 4.84747 3.6252C5.04822 3.48695 5.25918 3.36414 5.47852 3.25781C5.54748 3.2243 5.60712 3.17432 5.65219 3.11229C5.69725 3.05026 5.72635 2.97809 5.73692 2.90215L5.93409 1.49912C5.94704 1.42502 5.98532 1.35772 6.04239 1.30872C6.09946 1.25972 6.17177 1.23206 6.24698 1.23047H8.75303C8.82699 1.23175 8.89832 1.25818 8.95524 1.30542C9.01217 1.35266 9.05131 1.41788 9.06622 1.49033L9.26309 2.89131C9.27415 2.96809 9.304 3.04094 9.35 3.1034C9.396 3.16586 9.45672 3.21598 9.52676 3.24932C9.74584 3.35507 9.95609 3.47821 10.1555 3.61758C10.2193 3.662 10.2932 3.68983 10.3705 3.69858C10.4478 3.70732 10.526 3.6967 10.5981 3.66768L11.9133 3.13828C11.983 3.11174 12.0598 3.11065 12.1302 3.13519C12.2006 3.15974 12.2601 3.20835 12.2982 3.27246L13.5513 5.44043C13.5889 5.5052 13.6024 5.58124 13.5893 5.65501C13.5761 5.72878 13.5372 5.79549 13.4795 5.84326L12.3601 6.72217C12.2985 6.77069 12.25 6.83385 12.219 6.9059C12.1881 6.97794 12.1756 7.05658 12.1828 7.13467C12.1925 7.25596 12.1989 7.37783 12.1989 7.5Z" stroke="#6B6B6B" stroke-width="0.9375" stroke-linecap="round" stroke-linejoin="round"/>
</svg>
